<svg version="1.1" xmlns="http://www.w3.org/2000/svg" xmlns:xlink="http://www.w3.org/1999/xlink" x="0px" y="0px" fill="#ffd700" viewBox="0 0 1000 1000" enable-background="new 0 0 1000 1000" xml:space="preserve">
<metadata> Svg Vector Icons : http://www.onlinewebfonts.com/icon </metadata>
<g><g transform="translate(0.000000,511.000000) scale(0.100000,-0.100000)">
<path class="star-1" d="M814.5,683.2C744.1,542.4,684.1,426.4,682,422.3c-4.1-4.1-130.5-24.9-281.7-47.6c-153.2-22.8-285.8-49.7-298.2-62.1c-14.5-14.5,45.6-87,192.6-229.9L508-124.4l-47.6-287.9c-24.8-157.4-37.3-294.1-29-302.4c8.3-8.3,134.6,45.6,277.5,120.1l263,136.7l263-136.7c142.9-74.5,269.2-130.5,277.5-120.1c8.3,8.3-6.2,145-33.1,304.4l-47.6,289.9l198.8,188.4c118.1,109.8,200.9,205,200.9,227.8c0,20.7-4.1,39.3-10.4,39.3c-14.5,0-420.4,60.1-503.2,72.5c-64.2,12.4-74.6,26.9-190.5,271.3C1048.5,844.8,994.7,935.9,974,935.9C953.3,935.9,895.3,844.8,814.5,683.2z"/>
<path class="star-2" d="M2955.9,911.1c-12.4-14.5-74.5-130.5-138.8-258.9c-105.6-213.3-120.1-231.9-182.3-244.4c-37.3-6.2-161.5-24.9-275.4-41.4c-113.9-18.6-215.4-41.4-227.8-53.8c-12.4-12.4,53.8-93.2,190.5-231.9l209.2-211.2l-49.7-279.6c-33.1-186.4-43.5-283.7-29-298.2c14.5-14.5,105.6,22.8,279.6,111.8L2991.1-462L3250-596.6c165.7-84.9,265.1-126.3,277.5-113.9c14.5,14.5,2.1,120.1-29,300.3l-49.7,279.6l211.2,211.2c149.1,153.3,203,219.5,188.5,234c-12.4,12.4-147,41.4-300.3,64.2s-279.6,47.6-283.7,55.9c-47.6,113.9-248.5,490.8-265.1,497C2987,933.8,2966.3,925.6,2955.9,911.1z"/>
<path class="star-3" d="M4873.7,683.2c-70.4-140.8-130.5-256.8-132.5-260.9c-4.1-4.1-130.5-24.9-281.7-47.6c-153.3-22.8-285.8-49.7-298.2-62.1c-14.5-14.5,45.6-87,192.6-229.9l215.4-209.2l-47.6-285.8c-26.9-157.4-41.4-294.1-31.1-302.4c8.3-8.3,134.6,45.6,277.5,120.1l263,136.7l263-136.7c142.9-74.5,269.2-130.5,277.5-120.1c8.3,8.3-6.2,145-33.1,304.4l-47.6,289.9l198.8,188.4c118,109.8,200.9,205,200.9,227.8c0,20.7-4.2,39.3-10.4,39.3c-14.5,0-420.4,58-501.2,72.5c-62.1,10.4-74.6,29-190.5,269.2c-80.8,167.8-134.6,258.9-155.3,258.9C5012.4,935.9,4954.4,844.8,4873.7,683.2z"/>
<path class="star-4" d="M6959.1,890.3c-16.6-26.9-74.6-140.8-128.4-254.7c-53.9-113.9-99.4-209.2-101.5-211.2c-2.1-4.1-126.3-22.8-279.6-45.6c-151.2-22.8-285.8-51.8-298.2-64.2c-14.5-14.5,39.4-80.8,188.5-234l211.3-211.2l-51.8-279.6c-33.1-186.4-43.5-283.7-29-298.2c14.5-14.5,105.6,22.8,279.6,111.8L7008.9-462l258.9-134.6c174-89.1,265.1-126.3,279.6-111.8c14.5,14.5,4.2,111.8-29,298.2l-51.8,279.6l211.3,211.2c140.8,142.9,202.9,219.5,188.5,234c-10.4,10.4-145,39.3-298.2,62.1c-161.5,24.9-283.7,53.8-287.9,68.3c-31.1,84.9-244.4,480.5-265.1,486.7C7002.7,935.9,6977.8,917.3,6959.1,890.3z"/>
<path class="star-5" d="M8870.7,677c-116-240.2-128.4-258.9-190.5-269.2c-37.3-6.2-163.6-24.9-283.7-41.4c-120.1-18.6-225.7-41.4-238.2-53.8c-12.4-12.4,51.8-91.1,194.7-229.9l213.3-209.2l-47.6-285.8c-26.9-157.4-41.4-294.1-31.1-302.4c8.3-8.3,134.6,45.6,277.5,120.1l263,136.7l263-136.7c142.9-74.5,269.2-128.4,277.5-120.1c10.4,8.3-4.1,145-31.1,302.4l-47.6,283.7l213.3,211.2c149.1,142.9,209.2,215.4,194.7,229.9c-12.4,12.4-145,39.3-298.2,62.1c-151.2,22.8-279.6,43.5-283.7,47.6c-4.2,4.1-62.1,122.2-130.5,260.9c-82.8,165.7-136.7,252.7-157.4,252.7C9005.3,935.9,8951.4,848.9,8870.7,677z"/>
</g></g>
</svg>